<svg width="20" height="20" viewBox="0 0 20 20" fill="none" xmlns="http://www.w3.org/2000/svg">
<path d="M10.683 4.64999L9.99966 5.33499L9.313 4.64832C8.47292 3.80836 7.33358 3.33652 6.14562 3.33659C4.95765 3.33667 3.81838 3.80866 2.97841 4.64874C2.13845 5.48881 1.66661 6.62815 1.66669 7.81612C1.66677 9.00408 2.13876 10.1434 2.97883 10.9833L9.558 17.5625C9.67519 17.6795 9.83404 17.7453 9.99966 17.7453C10.1653 17.7453 10.3241 17.6795 10.4413 17.5625L17.0263 10.9817C17.8654 10.1415 18.3366 9.00262 18.3365 7.81523C18.3363 6.62784 17.8648 5.48908 17.0255 4.64915C16.6091 4.23252 16.1148 3.90201 15.5706 3.67652C15.0265 3.45102 14.4433 3.33496 13.8542 3.33496C13.2652 3.33496 12.682 3.45102 12.1379 3.67652C11.5937 3.90201 11.0994 4.23336 10.683 4.64999ZM16.1397 10.1L9.99966 16.2375L3.86216 10.1C3.55969 9.80071 3.31934 9.44461 3.15494 9.05215C2.99054 8.65969 2.90533 8.2386 2.90419 7.8131C2.90306 7.38759 2.98604 6.96606 3.14835 6.57273C3.31066 6.17939 3.54911 5.82202 3.84998 5.52114C4.15086 5.22026 4.50824 4.98181 4.90157 4.8195C5.2949 4.65719 5.71644 4.57422 6.14194 4.57535C6.56744 4.57648 6.98853 4.6617 7.38099 4.8261C7.77346 4.9905 8.12956 5.23085 8.42883 5.53332L9.5605 6.66415C9.61938 6.7231 9.68944 6.76968 9.76658 6.80115C9.84372 6.83263 9.92638 6.84836 10.0097 6.84743C10.093 6.8465 10.1753 6.82892 10.2517 6.79573C10.3281 6.76254 10.3971 6.7144 10.4547 6.65415L11.5663 5.53332C12.1791 4.96297 12.9892 4.6525 13.8262 4.66722C14.6632 4.68195 15.4618 5.02073 16.0541 5.61229C16.6465 6.20384 16.9862 7.00207 17.002 7.83905C17.0178 8.67602 16.7092 9.4865 16.1397 10.1Z" fill="#57534D"/>
</svg>
