<svg width="20" height="20" viewBox="0 0 20 20" fill="none" xmlns="http://www.w3.org/2000/svg">
<path d="M10 6.45835C9.80851 6.45835 9.61887 6.42063 9.44194 6.34734C9.26501 6.27406 9.10424 6.16664 8.96882 6.03122C8.8334 5.8958 8.72598 5.73503 8.6527 5.5581C8.57941 5.38117 8.54169 5.19153 8.54169 5.00002C8.54169 4.80851 8.57941 4.61887 8.6527 4.44194C8.72598 4.26501 8.8334 4.10424 8.96882 3.96882C9.10424 3.8334 9.26501 3.72598 9.44194 3.6527C9.61887 3.57941 9.80851 3.54169 10 3.54169C10.3868 3.54169 10.7577 3.69533 11.0312 3.96882C11.3047 4.24231 11.4584 4.61325 11.4584 5.00002C11.4584 5.38679 11.3047 5.75773 11.0312 6.03122C10.7577 6.30471 10.3868 6.45835 10 6.45835ZM10 11.4584C9.61325 11.4584 9.24231 11.3047 8.96882 11.0312C8.69533 10.7577 8.54169 10.3868 8.54169 10C8.54169 9.61325 8.69533 9.24231 8.96882 8.96882C9.24231 8.69533 9.61325 8.54169 10 8.54169C10.3868 8.54169 10.7577 8.69533 11.0312 8.96882C11.3047 9.24231 11.4584 9.61325 11.4584 10C11.4584 10.3868 11.3047 10.7577 11.0312 11.0312C10.7577 11.3047 10.3868 11.4584 10 11.4584ZM8.54169 15C8.54169 15.3868 8.69533 15.7577 8.96882 16.0312C9.24231 16.3047 9.61325 16.4584 10 16.4584C10.3868 16.4584 10.7577 16.3047 11.0312 16.0312C11.3047 15.7577 11.4584 15.3868 11.4584 15C11.4584 14.6132 11.3047 14.2423 11.0312 13.9688C10.7577 13.6953 10.3868 13.5417 10 13.5417C9.61325 13.5417 9.24231 13.6953 8.96882 13.9688C8.69533 14.2423 8.54169 14.6132 8.54169 15Z" fill="#57534D"/>
</svg>
