<svg width="80" height="80" viewBox="0 0 80 80" fill="none" xmlns="http://www.w3.org/2000/svg">
<path d="M35 27.5C35 26.837 34.7366 26.2011 34.2678 25.7323C33.7989 25.2634 33.1631 25 32.5 25C31.837 25 31.2011 25.2634 30.7323 25.7323C30.2634 26.2011 30 26.837 30 27.5V52.5C30 53.1631 30.2634 53.7989 30.7323 54.2678C31.2011 54.7366 31.837 55 32.5 55C33.1631 55 33.7989 54.7366 34.2678 54.2678C34.7366 53.7989 35 53.1631 35 52.5V27.5ZM50 27.5C50 26.837 49.7366 26.2011 49.2678 25.7323C48.7989 25.2634 48.1631 25 47.5 25C46.837 25 46.2011 25.2634 45.7323 25.7323C45.2634 26.2011 45 26.837 45 27.5V52.5C45 53.1631 45.2634 53.7989 45.7323 54.2678C46.2011 54.7366 46.837 55 47.5 55C48.1631 55 48.7989 54.7366 49.2678 54.2678C49.7366 53.7989 50 53.1631 50 52.5V27.5ZM40 6.66669C21.59 6.66669 6.66669 21.59 6.66669 40C6.66669 58.41 21.59 73.3334 40 73.3334C58.41 73.3334 73.3334 58.41 73.3334 40C73.3334 21.59 58.41 6.66669 40 6.66669ZM11.6667 40C11.6667 32.4856 14.6518 25.2789 19.9653 19.9653C25.2789 14.6518 32.4856 11.6667 40 11.6667C47.5145 11.6667 54.7212 14.6518 60.0347 19.9653C65.3482 25.2789 68.3334 32.4856 68.3334 40C68.3334 47.5145 65.3482 54.7212 60.0347 60.0347C54.7212 65.3482 47.5145 68.3334 40 68.3334C32.4856 68.3334 25.2789 65.3482 19.9653 60.0347C14.6518 54.7212 11.6667 47.5145 11.6667 40Z" fill="#57534D"/>
</svg>
