<svg width="20" height="20" viewBox="0 0 20 20" fill="none" xmlns="http://www.w3.org/2000/svg">
<path d="M6.34002 3.84582C6.24483 3.79411 6.13783 3.76803 6.02952 3.77014C5.92121 3.77225 5.8153 3.80248 5.7222 3.85785C5.62909 3.91323 5.55197 3.99186 5.49842 4.08602C5.44486 4.18019 5.41669 4.28666 5.41669 4.39499V15.605C5.41669 15.7133 5.44486 15.8198 5.49842 15.914C5.55197 16.0081 5.62909 16.0867 5.7222 16.1421C5.8153 16.1975 5.92121 16.2277 6.02952 16.2298C6.13783 16.2319 6.24483 16.2059 6.34002 16.1542L16.6417 10.5492C16.7405 10.4955 16.823 10.4161 16.8805 10.3195C16.9379 10.2228 16.9683 10.1124 16.9683 9.99999C16.9683 9.88754 16.9379 9.77717 16.8805 9.68051C16.823 9.58386 16.7405 9.50451 16.6417 9.45082L6.34002 3.84582ZM4.16669 4.39499C4.16669 2.97249 5.68835 2.06832 6.93752 2.74749L17.2392 8.35249C18.5442 9.06332 18.5442 10.9367 17.2392 11.6467L6.93752 17.2517C5.68835 17.9317 4.16669 17.0267 4.16669 15.605V4.39499Z" fill="#57534D"/>
</svg>
