<svg width="80" height="80" viewBox="0 0 80 80" fill="none" xmlns="http://www.w3.org/2000/svg">
<path d="M36.1866 27.1834C35.5524 26.8318 34.8374 26.6519 34.1123 26.6613C33.3872 26.6708 32.6771 26.8693 32.0523 27.2373C31.4274 27.6053 30.9094 28.1299 30.5495 28.7595C30.1895 29.389 30.0001 30.1015 30 30.8267V49.1734C30.0001 49.8985 30.1895 50.6111 30.5495 51.2406C30.9094 51.8701 31.4274 52.3948 32.0523 52.7628C32.6771 53.1307 33.3872 53.3293 34.1123 53.3387C34.8374 53.3482 35.5524 53.1682 36.1866 52.8167L55.3766 42.1867C55.767 41.9704 56.0923 41.6535 56.3188 41.269C56.5454 40.8844 56.6648 40.4463 56.6648 40C56.6648 39.5537 56.5454 39.1156 56.3188 38.7311C56.0923 38.3466 55.767 38.0297 55.3766 37.8134L36.1866 27.1834ZM40 6.66669C21.59 6.66669 6.66663 21.59 6.66663 40C6.66663 58.41 21.59 73.3334 40 73.3334C58.41 73.3334 73.3333 58.41 73.3333 40C73.3333 21.59 58.41 6.66669 40 6.66669ZM11.6666 40C11.6666 32.4856 14.6517 25.2789 19.9653 19.9653C25.2788 14.6518 32.4855 11.6667 40 11.6667C47.5144 11.6667 54.7211 14.6518 60.0347 19.9653C65.3482 25.2789 68.3333 32.4856 68.3333 40C68.3333 47.5145 65.3482 54.7212 60.0347 60.0347C54.7211 65.3482 47.5144 68.3334 40 68.3334C32.4855 68.3334 25.2788 65.3482 19.9653 60.0347C14.6517 54.7212 11.6666 47.5145 11.6666 40Z" fill="#57534D"/>
</svg>
