<svg width="20" height="20" viewBox="0 0 20 20" fill="none" xmlns="http://www.w3.org/2000/svg">
<path d="M7.085 9.58331C7.30646 9.58331 7.51884 9.67129 7.67543 9.82788C7.83203 9.98447 7.92 10.1969 7.92 10.4183C7.92 10.6398 7.83203 10.8522 7.67543 11.0087C7.51884 11.1653 7.30646 11.2533 7.085 11.2533C6.86354 11.2533 6.65116 11.1653 6.49457 11.0087C6.33797 10.8522 6.25 10.6398 6.25 10.4183C6.25 10.1969 6.33797 9.98447 6.49457 9.82788C6.65116 9.67129 6.86354 9.58331 7.085 9.58331Z" fill="#57534D"/>
<path d="M10 3.62835V9.17085L16.2017 9.17001L14.7667 7.73335C14.6608 7.62752 14.5965 7.48723 14.5853 7.33797C14.5742 7.18871 14.6169 7.04041 14.7059 6.92001L14.7667 6.85001C14.8725 6.74417 15.0128 6.67981 15.1621 6.66865C15.3113 6.65748 15.4596 6.70025 15.58 6.78918L15.65 6.85001L18.1475 9.34751C18.2534 9.45334 18.3177 9.59363 18.3289 9.74289C18.3401 9.89215 18.2973 10.0405 18.2084 10.1608L18.1475 10.2308L15.6509 12.7342C15.5393 12.8453 15.39 12.9102 15.2327 12.9159C15.0754 12.9217 14.9217 12.8679 14.8024 12.7652C14.683 12.6626 14.6068 12.5188 14.5889 12.3624C14.571 12.206 14.6128 12.0486 14.7059 11.9217L14.7659 11.8508L16.1934 10.42L10.0009 10.4208L10 16.0417C10.0001 16.133 9.98011 16.2231 9.94158 16.3059C9.90304 16.3886 9.84685 16.4619 9.77695 16.5206C9.70706 16.5793 9.62515 16.622 9.537 16.6456C9.44884 16.6693 9.35658 16.6733 9.26669 16.6575L2.18335 15.4058C2.03884 15.3804 1.90788 15.3049 1.81341 15.1927C1.71895 15.0804 1.66701 14.9384 1.66669 14.7917V4.79168C1.66669 4.64355 1.71931 4.50023 1.81516 4.38728C1.91101 4.27434 2.04386 4.19911 2.19002 4.17501L9.27335 3.01168C9.36282 2.99693 9.45443 3.00183 9.54182 3.02603C9.62921 3.05022 9.71028 3.09315 9.77942 3.15182C9.84856 3.21049 9.9041 3.28351 9.94219 3.36579C9.98029 3.44808 10 3.53767 10 3.62835ZM8.75002 4.36418L2.91669 5.32251V14.2667L8.75002 15.2967V4.36418Z" fill="#57534D"/>
<path d="M10.8333 15.4175H11.4708L11.5558 15.4125C11.7057 15.3919 11.8431 15.3177 11.9424 15.2035C12.0417 15.0893 12.0962 14.943 12.0958 14.7917L12.09 11.25H10.8333V15.4175ZM10.835 8.33335L10.8333 7.27085V4.16669H11.4541C11.6051 4.16667 11.7509 4.22124 11.8647 4.32035C11.9785 4.41945 12.0526 4.55638 12.0733 4.70585L12.0791 4.79085L12.085 8.33335H10.835Z" fill="#57534D"/>
</svg>
